<svg height="512" viewBox="0 0 64 64" width="512" xmlns="http://www.w3.org/2000/svg"><g id="Config"><path d="m3 43v4a2.006 2.006 0 0 0 2 2h54a2.006 2.006 0 0 0 2-2v-4z" fill="#d1d3d4"/><path d="m61 13v30h-58v-30a2.006 2.006 0 0 1 2-2h54a2.006 2.006 0 0 1 2 2z" fill="#a7a9ac"/><path d="m6 14h52v26h-52z" fill="#414042"/><path d="m31 40h27v-26c0 14.371-12.076 26-27 26z" fill="#3a3a3b"/><path d="m26 49h12v6h-12z" fill="#a7a9ac"/><path d="m26 49h12v2h-12z" fill="#808285"/><path d="m21 55a2 2 0 0 0 -2 2v4h26v-4a2 2 0 0 0 -2-2z" fill="#d1d3d4"/><path d="m39 21a7 7 0 0 0 -14 0 6.89 6.89 0 0 0 1.26 4h11.48a6.89 6.89 0 0 0 1.26-4z" fill="#f1f2f2"/><path d="m19.34 14 1.08 1.08a13.361 13.361 0 0 0 -.79 1.92h-5.63v8h12.26a6.89 6.89 0 0 1 -1.26-4 7 7 0 0 1 14 0 6.89 6.89 0 0 1 -1.26 4h12.26v-8h-5.63a13.361 13.361 0 0 0 -.79-1.92l1.08-1.08 2.9-2.9-.1-.1-5.56-5.56-3.98 3.98a13.361 13.361 0 0 0 -1.92-.79v-5.63h-8v5.63a13.361 13.361 0 0 0 -1.92.79l-3.98-3.98-5.56 5.56-.1.1z" fill="#ffcd00"/><path d="m55 45h-2a1 1 0 0 0 0 2h2a1 1 0 0 0 0-2z" fill="#5eac24"/><path d="m54 31h-44a1 1 0 0 1 0-2h44a1 1 0 0 1 0 2z" fill="#2488ff"/><path d="m54 36h-44a1 1 0 0 1 0-2h44a1 1 0 0 1 0 2z" fill="#006df0"/><rect fill="#57a4ff" height="2" rx="1" width="46" x="9" y="24"/><circle cx="25" cy="35" fill="#ffcd00" r="2"/><circle cx="18" cy="30" fill="#ed1c24" r="2"/></g></svg>