<?xml version="1.0" encoding="iso-8859-1"?>
<!-- Generator: Adobe Illustrator 19.0.0, SVG Export Plug-In . SVG Version: 6.00 Build 0)  -->
<svg version="1.1" id="Capa_1" xmlns="http://www.w3.org/2000/svg" xmlns:xlink="http://www.w3.org/1999/xlink" x="0px" y="0px"
	 viewBox="0 0 497.371 497.371" style="enable-background:new 0 0 497.371 497.371;" xml:space="preserve">
<rect x="14.629" y="17.554" style="fill:#FFFFFF;" width="468.114" height="373.029"/>
<g style="opacity:0.5;">
	<rect x="14.629" y="17.554" style="fill:#C0D0D6;" width="468.114" height="40.96"/>
</g>
<path style="fill:#A5C3D1;" d="M324.754,479.817H172.617c-8.777,0-14.629-11.703-7.314-17.554
	c30.72-27.794,39.497-73.143,39.497-73.143h86.309c0,0,8.777,45.349,39.497,73.143C337.92,469.577,333.531,479.817,324.754,479.817z
	"/>
<path style="fill:#849DA9;" d="M298.423,424.229c-4.389-20.48-7.314-35.109-7.314-35.109H204.8c0,0-1.463,14.629-7.314,35.109
	H298.423z"/>
<rect x="14.629" y="292.571" style="fill:#E09C49;" width="468.114" height="96.549"/>
<g>
	<path style="fill:#030303;" d="M482.743,403.749H14.629C5.851,403.749,0,397.897,0,389.12V17.554C0,8.777,5.851,2.926,14.629,2.926
		h468.114c8.777,0,14.629,5.851,14.629,14.629v373.029C497.371,397.897,491.52,403.749,482.743,403.749z M29.257,374.491h438.857
		V32.183H29.257V374.491z"/>
	<path style="fill:#030303;" d="M324.754,494.446H172.617c-10.24,0-19.017-5.851-23.406-16.091
		c-4.389-10.24-1.463-20.48,5.851-27.794c27.794-24.869,35.109-64.366,35.109-64.366c1.463-7.314,7.314-11.703,14.629-11.703h86.309
		c7.314,0,13.166,4.389,14.629,11.703c0,0,8.777,40.96,35.109,64.366c7.314,7.314,10.24,17.554,5.851,27.794
		C343.771,488.594,334.994,494.446,324.754,494.446z M182.857,465.189h131.657c-19.017-20.48-29.257-46.811-33.646-61.44h-62.903
		C212.114,418.377,203.337,444.709,182.857,465.189z"/>
	<path style="fill:#030303;" d="M482.743,307.2H14.629C5.851,307.2,0,301.349,0,292.571c0-8.777,5.851-14.629,14.629-14.629h468.114
		c8.777,0,14.629,5.851,14.629,14.629C497.371,301.349,491.52,307.2,482.743,307.2z"/>
	<path style="fill:#030303;" d="M266.24,355.474h-35.109c-8.777,0-14.629-5.851-14.629-14.629c0-8.777,5.851-14.629,14.629-14.629
		h35.109c8.777,0,14.629,5.851,14.629,14.629C280.869,349.623,273.554,355.474,266.24,355.474z"/>
</g>
<rect x="220.891" y="136.046" style="fill:#FFCA19;" width="54.126" height="102.4"/>
<rect x="220.891" y="136.046" style="fill:#D69D28;" width="54.126" height="30.72"/>
<path d="M276.48,253.074h-54.126c-8.777,0-14.629-5.851-14.629-14.629v-102.4c0-8.777,5.851-14.629,14.629-14.629h54.126
	c8.777,0,14.629,5.851,14.629,14.629v102.4C291.109,247.223,283.794,253.074,276.48,253.074z M235.52,223.817h24.869v-73.143H235.52
	V223.817z"/>
<rect x="323.291" y="65.829" style="fill:#F15E75;" width="54.126" height="172.617"/>
<rect x="323.291" y="65.829" style="fill:#EF3956;" width="54.126" height="38.034"/>
<path d="M377.417,253.074h-54.126c-8.777,0-14.629-5.851-14.629-14.629V65.829c0-8.777,5.851-14.629,14.629-14.629h54.126
	c8.777,0,14.629,5.851,14.629,14.629v172.617C392.046,247.223,384.731,253.074,377.417,253.074z M337.92,223.817h24.869V80.457
	H337.92V223.817z"/>
<rect x="119.954" y="98.011" style="fill:#A5C3D1;" width="54.126" height="141.897"/>
<rect x="119.954" y="98.011" style="fill:#849DA9;" width="54.126" height="83.383"/>
<path d="M174.08,253.074h-54.126c-8.777,0-14.629-5.851-14.629-14.629V98.011c0-8.777,5.851-14.629,14.629-14.629h54.126
	c8.777,0,14.629,5.851,14.629,14.629v141.897C188.709,247.223,182.857,253.074,174.08,253.074z M134.583,223.817h24.869V112.64
	h-24.869V223.817z"/>
<g>
</g>
<g>
</g>
<g>
</g>
<g>
</g>
<g>
</g>
<g>
</g>
<g>
</g>
<g>
</g>
<g>
</g>
<g>
</g>
<g>
</g>
<g>
</g>
<g>
</g>
<g>
</g>
<g>
</g>
</svg>
