<svg height="450pt" viewBox="0 0 450 450.02" width="450pt" xmlns="http://www.w3.org/2000/svg"><path d="m330.898438 313.339844 9.8125-5.179688 59.050781-31.839844 7.089843-3.832031c15.148438-8.183593 34.058594-3.011719 42.9375 11.742188l-139.160156 95.550781c-18.757812 9.289062-40.011718 12.289062-60.609375 8.558594l-80.441406-14.820313c-7.398437-1.855469-15.230469-.8125-21.886719 2.910157l-43.5625 27.539062-30.4375-99.828125.257813-.082031c9.390625-1.730469 18.125-6.007813 25.25-12.359375l13.332031-11.859375c26.65625-20.058594 62.292969-23.539063 92.328125-9.019532l5.519531 2.667969c8.636719 4.179688 18.105469 6.351563 27.699219 6.351563h53.53125c19.546875.007812 36.191406 14.203125 39.289063 33.5zm0 0" fill="#f7caa5"/><path d="m404.898438 163.71875v38.941406h-106.507813v-44.488281c.011719-8.816406-2.605469-17.433594-7.519531-24.75 6.65625-5.394531 14.914062-8.429687 23.480468-8.632813 6.148438 8.316407 15.792969 13.328126 26.128907 13.582032 10.339843.253906 20.21875-4.277344 26.769531-12.28125.324219-.449219.691406-.863282 1.101562-1.238282 20.535157 1.265626 36.542969 18.292969 36.546876 38.867188zm0 0" fill="#f8ec7d"/><path d="m399.710938 276.230469.050781.089843-59.050781 31.839844-9.8125 5.179688c-1.449219-9.132813-6.050782-17.46875-13-23.570313l37.953124-20.449219 9.660157-5.210937c11.929687-6.050781 27.589843.492187 34.199219 12.121094zm0 0" fill="#edb288"/><path d="m375.25 59.878906v17.3125c0 19.113282-15.496094 34.609375-34.609375 34.609375s-34.609375-15.496093-34.609375-34.609375v-17.3125c0-19.113281 15.496094-34.609375 34.609375-34.609375s34.609375 15.496094 34.609375 34.609375zm0 0" fill="#f8ec7d"/><path d="m355.378906 268.441406.472656.878906-37.953124 20.449219c-7.25-6.414062-16.605469-9.949219-26.289063-9.929687h-11.871094l31.5625-17.160156c14.300781-8.292969 32.390625-5.929688 44.078125 5.761718zm0 0" fill="#edb288"/><path d="m290.871094 133.421875c4.914062 7.316406 7.53125 15.933594 7.519531 24.75v64.257813h-146.820313v-64.257813c-.007812-24.140625 19.238282-43.878906 43.371094-44.480469 7.023438 9.5 18.042969 15.226563 29.855469 15.515625 11.8125.292969 23.097656-4.882812 30.582031-14.027343.375-.507813.792969-.984376 1.25-1.417969 13.855469.851562 26.519532 8.125 34.242188 19.660156zm0 0" fill="#e48e66"/><path d="m264.519531 39.539062v19.769532c0 21.839844-17.703125 39.542968-39.539062 39.542968-21.835938 0-39.539063-17.703124-39.539063-39.542968v-19.769532c0-21.835937 17.703125-39.539062 39.539063-39.539062 21.835937 0 39.539062 17.703125 39.539062 39.539062zm0 0" fill="#e48e66"/><path d="m157.390625 132.230469 1.558594 1.390625c-4.824219 7.277344-7.390625 15.816406-7.378907 24.550781v44.488281h-106.671874v-38.941406c0-21.125 16.84375-38.394531 37.960937-38.929688 6.152344 8.316407 15.796875 13.328126 26.136719 13.582032s20.21875-4.277344 26.773437-12.28125c.324219-.449219.6875-.863282 1.089844-1.238282 7.410156.4375 14.535156 3 20.53125 7.378907zm0 0" fill="#f8ec7d"/><path d="m143.769531 59.878906v17.3125c0 19.113282-15.496093 34.609375-34.609375 34.609375-19.113281 0-34.609375-15.496093-34.609375-34.609375v-17.3125c0-19.113281 15.496094-34.609375 34.609375-34.609375 19.113282 0 34.609375 15.496094 34.609375 34.609375zm0 0" fill="#f8ec7d"/><path d="m331.398438 325.640625c-.089844 0-.179688 0-.269532-.007813l-45.652344-2.070312c-13.371093-.601562-26.773437.015625-40.03125 1.851562-2.132812.308594-4.265624-.546874-5.59375-2.242187-1.328124-1.695313-1.640624-3.972656-.828124-5.96875.816406-1.992187 2.636718-3.394531 4.773437-3.675781 13.984375-1.933594 28.117187-2.585938 42.222656-1.953125l38.789063 1.761719c-3.03125-15.949219-16.964844-27.492188-33.199219-27.5h-53.53125c-10.496094-.015626-20.855469-2.390626-30.3125-6.949219l-5.519531-2.671875c-27.921875-13.578125-61.09375-10.382813-85.914063 8.269531l-13.144531 11.695313c-7.945312 7.082031-17.683594 11.847656-28.148438 13.773437-2.121093.421875-4.304687-.332031-5.714843-1.972656-1.410157-1.636719-1.828125-3.910157-1.097657-5.945313.734376-2.03125 2.503907-3.515625 4.636719-3.878906 8.308594-1.53125 16.039063-5.316406 22.34375-10.9375l13.335938-11.863281c.121093-.113281.25-.214844.378906-.3125 28.421875-21.492188 66.503906-25.210938 98.550781-9.628907l5.519532 2.671876c7.828124 3.773437 16.398437 5.738281 25.085937 5.75h53.53125c25.292969 0 45.796875 20.507812 45.789063 45.800781 0 3.3125-2.683594 6-6 6zm0 0" fill="#edb288"/><path d="m104.128906 403.96875 14.042969 46.050781h-96.683594l-21.4765622-176.160156h64.4492192l9.230468 30.28125zm-26.480468 15.230469c0-7.117188-5.769532-12.890625-12.886719-12.890625-7.121094 0-12.890625 5.773437-12.890625 12.890625 0 7.121093 5.769531 12.890625 12.890625 12.890625 7.117187 0 12.890625-5.769532 12.886719-12.890625zm0 0" fill="#e48e66"/><path d="m77.648438 419.199219c0 7.121093-5.769532 12.890625-12.886719 12.890625-7.121094 0-12.890625-5.769532-12.890625-12.890625 0-7.117188 5.769531-12.890625 12.890625-12.890625 7.117187 0 12.886719 5.773437 12.886719 12.890625zm0 0" fill="#f8ec7d"/></svg>